<svg width="8" height="15" viewBox="0 0 8 15" fill="none" xmlns="http://www.w3.org/2000/svg">
<path d="M0.430428 0.439169C0.293971 0.578467 0.185723 0.743865 0.111868 0.925913C0.0380128 1.10796 -5.98711e-07 1.30309 -5.90097e-07 1.50015C-5.81484e-07 1.69721 0.0380129 1.89234 0.111868 2.07438C0.185723 2.25643 0.293971 2.42183 0.430429 2.56113L4.91896 7.14703C5.01073 7.2408 5.06228 7.36795 5.06228 7.50053C5.06228 7.6331 5.01073 7.76026 4.91896 7.85402L0.430429 12.4389C0.154955 12.7202 0.000143058 13.1017 5.12829e-05 13.4996C-4.04921e-05 13.8974 0.154595 14.279 0.429939 14.5604C0.705284 14.8418 1.07878 14.9999 1.46827 15C1.85776 15.0001 2.23133 14.8421 2.50681 14.5609L6.99632 9.97498C7.31452 9.64997 7.56694 9.26413 7.73915 8.83947C7.91136 8.41482 8 7.95967 8 7.50003C8 7.04038 7.91136 6.58523 7.73915 6.16058C7.56694 5.73592 7.31452 5.35008 6.99632 5.02508L2.5068 0.439169C2.23143 0.157968 1.85799 -4.32603e-07 1.46862 -4.15583e-07C1.07924 -3.98563e-07 0.705802 0.157968 0.430428 0.439169Z" fill="black"/>
</svg>
