<svg viewBox="0 0 59 60" fill="none" xmlns="http://www.w3.org/2000/svg">
<path d="M32.9435 11.7692C26.5581 18.2534 21.1864 23.5357 20.933 23.5357C20.7213 23.5357 17.2125 20.9171 13.1941 17.7387L5.92038 11.9416L0 14.9476V45.01L5.92038 48.0159L12.6455 42.6911C16.3686 39.7276 19.7938 37.0666 20.2589 36.7641C21.1054 36.2494 21.9493 37.0214 32.9044 48.1035L44.6197 60L51.8099 57.0365L59 54.1154V5.84214L53.5029 3.60822C50.5009 2.36126 47.2429 1.07451 46.2709 0.687155L44.5361 0L32.9488 11.7665L32.9435 11.7692ZM44.4055 29.9801C44.4055 36.5943 44.3219 42.004 44.152 42.004C43.5589 42.004 29.1813 30.2375 29.3067 29.8501C29.4347 29.3778 43.6007 17.996 44.1102 17.996C44.28 17.9535 44.4055 23.3659 44.4055 29.9801ZM10.7826 25.6847L15.0126 29.9801L10.7826 34.2755C8.45731 36.6367 6.42724 38.5709 6.25742 38.5709C6.04579 38.5709 5.91777 34.7053 5.91777 29.9828C5.91777 25.2602 6.04318 21.392 6.25742 21.392C6.42724 21.392 8.45731 23.3235 10.7826 25.6847Z" fill="#000000"/>
</svg>
