<svg viewBox="0 0 51 60" fill="none" xmlns="http://www.w3.org/2000/svg">
<path d="M40.9523 0C39.6613 0 39.1019 0.8125 38.6375 1.65C38.6375 1.65 20.0217 34.71 19.4049 35.7925C19.4424 35.8525 31.6881 58.35 31.6881 58.35C32.1126 59.12 32.7768 60 34.1028 60H42.7277C43.2546 60 43.6641 59.805 43.8838 59.45C44.1061 59.0725 44.1061 58.585 43.8614 58.11L31.6781 35.82C31.6681 35.805 31.6681 35.78 31.6781 35.765L50.8183 1.89C51.0555 1.4125 51.0605 0.9225 50.8332 0.5525C50.611 0.195 50.2065 0 49.6871 0H40.9523ZM4.64463 11.85C4.11774 11.85 3.68325 12.035 3.4635 12.39C3.23877 12.7625 3.26873 13.2375 3.51344 13.7175L9.35663 23.8425C9.36662 23.8675 9.36662 23.8825 9.35663 23.895L0.179834 40.1275C-0.0673775 40.5975 -0.052395 41.08 0.179834 41.45C0.392087 41.805 0.776637 42.035 1.30352 42.035H9.94594C11.2394 42.035 11.8587 41.165 12.3057 40.3675L21.6298 23.845L15.6917 13.4575C15.2622 12.67 14.608 11.81 13.2895 11.81H4.64463V11.85Z" fill="#000"/>
</svg>
