<svg viewBox="0 0 60 59" fill="none" xmlns="http://www.w3.org/2000/svg">
<path d="M31.6552 59C31.6552 59 54.5273 58.6974 59.0415 40.241C63.5557 21.7846 51.2168 6.65641 40.9846 6.95897C31.0533 7.5641 28.6457 16.641 32.859 22.9949C37.0723 29.0462 45.4988 32.6769 45.1979 42.9641C45.1979 53.2513 31.6552 59 31.6552 59ZM28.3448 0C28.3448 0 5.47273 0.302566 0.958513 18.759C-3.55571 37.2154 8.78316 52.3436 19.0154 52.041C28.9467 51.4359 31.3543 42.359 27.141 36.3077C22.9277 29.9538 14.8021 26.6256 14.8021 16.3385C14.8021 6.05128 28.3448 0 28.3448 0Z" fill="#000000"/>
</svg>
