<svg viewBox="0 0 60 45" fill="none" xmlns="http://www.w3.org/2000/svg">
<path d="M8.55198 44.6049C5.86783 43.6074 3.02867 39.9228 1.72872 35.7489C0.357016 31.3446 0.00346599 28.2752 6.59873e-05 20.7403C-0.00268397 14.6756 0.078566 13.3691 0.611817 10.9117C2.04787 4.29296 4.73957 1.40578 9.19028 1.7098C12.377 1.92696 14.0495 3.30414 15.0139 6.50442C15.4539 7.96544 15.6061 15.167 15.2304 16.7517C14.9804 17.8052 15.0499 17.7198 17.4449 14.0372C21.8105 7.32406 26.2413 2.47793 29.4836 0.869961C31.7521 -0.255215 34.5763 -0.292586 36.4659 0.779058C39.1224 2.283 40.3909 5.84942 40.1601 11.1652L40.0191 14.412L41.783 12.1884C45.7843 7.14428 50.8276 2.79306 53.8455 1.7805C56.7021 0.821984 59.0847 1.6896 59.8074 3.94702C60.3951 5.78377 59.7774 7.2569 55.9895 13.0818C52.0942 19.0682 51.0923 20.8444 47.0396 28.9478C43.6965 35.6322 42.5831 37.1887 40.1869 38.5295C38.8593 39.2719 38.337 39.3936 36.4777 39.3936C34.6402 39.3941 34.1114 39.2724 32.9735 38.5982C31.4004 37.6639 30.3678 36.4973 29.3908 34.55C28.4842 32.743 28.1207 30.9926 27.875 27.2515L27.677 24.2396L26.5679 26.2662C25.9578 27.3813 24.4993 30.377 23.3268 32.9228C22.1543 35.4691 20.7302 38.325 20.1621 39.2699C18.8915 41.3823 16.8909 43.4398 15.3074 44.2625C13.7359 45.0791 10.2959 45.2533 8.55198 44.6049Z" fill="#000000"/>
</svg>
