<svg viewBox="0 0 87 41" fill="none" xmlns="http://www.w3.org/2000/svg">
<path d="M37.0544 41H0L23.883 9.01939H3.36292V0H42.0365L18.2781 31.9806H37.0544V41ZM40.9155 40.7857C40.9155 40.7857 40.9155 29.4733 52.4366 29.4733H58.1972C58.1972 29.4733 58.1972 40.7857 46.6761 40.7857H40.9155ZM40.9155 26.3546C40.9155 26.3546 40.9155 15.0422 52.4366 15.0422H69.7183C69.7183 15.0422 69.7183 26.3546 58.1972 26.3546H40.9155ZM40.9155 11.8931C40.9155 11.8931 40.9155 0.580602 52.4366 0.580602H87C87 0.580602 87 11.8931 75.4789 11.8931H40.9155Z" fill="#000000"/>
</svg>
