<svg viewBox="0 0 52 60" fill="none" xmlns="http://www.w3.org/2000/svg">
<path d="M15.5877 59.681C9.8536 58.6615 4.43251 54.7438 2.02373 49.8786C0.351299 46.5003 -0.291645 42.9285 0.121341 39.3107C0.886711 32.6051 4.41655 27.1139 9.90358 24.0921C12.7964 22.4992 16.9411 21.7077 20.0261 22.1587L21.8102 22.4187L21.8107 27.7809L21.8111 33.143L20.1232 33.073C16.056 32.9081 13.026 34.621 11.4609 37.9648C10.712 39.5647 10.5223 42.408 11.049 44.1399C11.6984 46.2763 13.6187 48.2057 15.9372 49.0521C16.727 49.3421 17.5816 49.4521 19.0463 49.4471C20.8696 49.4451 21.2044 49.3821 22.4864 48.7856C24.3424 47.9227 25.6966 46.6702 26.4925 45.0803C27.0084 44.0499 27.1745 43.3654 27.3359 41.605C27.4462 40.3991 27.5397 30.5447 27.5438 19.7063L27.5489 0H31.025C32.9369 0 35.2331 0.0599962 36.1279 0.134992L37.7545 0.269984V1.06194C37.7545 2.96832 38.8882 6.62511 40.0503 8.4675C40.3406 8.92747 41.3544 10.0564 42.3035 10.9764C44.1373 12.7537 45.6842 13.6522 48.0665 14.3222C48.7682 14.5221 49.5084 14.7671 49.7114 14.8671C49.9143 14.9671 50.2972 15.0571 50.5619 15.0571C50.8268 15.0591 51.2585 15.1171 51.5216 15.1871L52 15.3121V20.2858V25.2595L51.0964 25.1645C46.21 24.646 42.3046 23.3641 39.1877 21.2547C37.6387 20.2068 37.5047 20.1448 37.6514 20.5438C37.7042 20.6888 37.6666 26.168 37.568 32.7231C37.3972 44.0864 37.3667 44.7184 36.9182 46.3088C35.1945 52.4194 31.3259 56.9566 26.2321 58.842C23.1176 59.995 19.1327 60.3114 15.5877 59.681Z" fill="#000000"/>
</svg>
