<svg width="44" height="46" viewBox="0 0 44 46" fill="none" xmlns="http://www.w3.org/2000/svg">
<path fill-rule="evenodd" clip-rule="evenodd" d="M0 33.2222C0 31.2907 1.56569 29.7251 3.49707 29.7251H8.74269C10.6741 29.7251 12.2398 31.2907 12.2398 33.2222V41.9649C12.2398 43.8963 10.6741 45.4619 8.74269 45.4619H3.49707C1.56569 45.4619 0 43.8963 0 41.9649V33.2222ZM8.74269 33.9216C8.74269 33.5353 8.42954 33.2222 8.04327 33.2222H4.19649C3.81022 33.2222 3.49707 33.5353 3.49707 33.9216V41.2654C3.49707 41.6517 3.81022 41.9649 4.19649 41.9649H8.04327C8.42954 41.9649 8.74269 41.6517 8.74269 41.2654V33.9216Z" fill="#000"/>
<path fill-rule="evenodd" clip-rule="evenodd" d="M15.7373 3.49707C15.7373 1.56569 17.3029 0 19.2344 0H24.48C26.4114 0 27.9771 1.56569 27.9771 3.49707V41.9649C27.9771 43.8963 26.4114 45.462 24.48 45.462H19.2344C17.3029 45.462 15.7373 43.8963 15.7373 41.9649V3.49707ZM24.48 4.19649C24.48 3.81022 24.1668 3.49707 23.7806 3.49707H19.9338C19.5475 3.49707 19.2344 3.81022 19.2344 4.19649V41.2655C19.2344 41.6517 19.5475 41.9649 19.9338 41.9649H23.7806C24.1668 41.9649 24.48 41.6517 24.48 41.2655V4.19649Z" fill="#000"/>
<path fill-rule="evenodd" clip-rule="evenodd" d="M31.4746 17.4854C31.4746 15.554 33.0402 13.9883 34.9717 13.9883H40.2173C42.1487 13.9883 43.7144 15.554 43.7144 17.4854V41.9649C43.7144 43.8963 42.1487 45.4619 40.2173 45.4619H34.9717C33.0402 45.4619 31.4746 43.8963 31.4746 41.9649V17.4854ZM40.2173 18.1848C40.2173 17.7985 39.9041 17.4854 39.5179 17.4854H35.6711C35.2848 17.4854 34.9717 17.7985 34.9717 18.1848V41.2655C34.9717 41.6517 35.2848 41.9649 35.6711 41.9649H39.5179C39.9041 41.9649 40.2173 41.6517 40.2173 41.2655V18.1848Z" fill="#000"/>
</svg>
