<svg width="44" height="44" viewBox="0 0 44 44" fill="none" xmlns="http://www.w3.org/2000/svg">
<path fill-rule="evenodd" clip-rule="evenodd" d="M16.7157 37.7586C17.1363 38.5469 17.5575 39.2573 17.9601 39.8867C13.6827 38.9248 9.97104 36.4679 7.40271 33.0936C9.09776 32.1391 11.2688 31.1496 13.8787 30.4255C14.6205 33.3349 15.667 35.7923 16.7157 37.7586ZM19.9511 36.0331C19.04 34.3251 18.127 32.1921 17.4692 29.6648C18.8853 29.4546 20.3969 29.3333 22.0002 29.3333C23.6033 29.3333 25.115 29.4546 26.5308 29.6646C25.873 32.1921 24.96 34.3251 24.0489 36.0331C23.3185 37.4027 22.5908 38.4961 22 39.2962C21.4092 38.4961 20.6815 37.4027 19.9511 36.0331ZM16.5 22C16.5 23.4278 16.5961 24.783 16.7655 26.0624C18.3991 25.8119 20.1456 25.6667 22.0002 25.6667C23.8546 25.6667 25.6012 25.8116 27.2345 26.0624C27.4039 24.7828 27.5 23.4278 27.5 22C27.5 20.5722 27.4039 19.2172 27.2345 17.9376C25.6012 18.1881 23.8546 18.3333 22.0002 18.3333C20.1456 18.3333 18.3991 18.1881 16.7655 17.9376C16.5961 19.217 16.5 20.5722 16.5 22ZM13.1679 17.1815C12.955 18.6946 12.8333 20.3021 12.8333 22C12.8333 23.6979 12.955 25.3054 13.1679 26.8185C10.0549 27.6542 7.47712 28.8327 5.48348 29.9667C4.31928 27.5577 3.66667 24.8551 3.66667 22C3.66667 19.1449 4.31928 16.4424 5.48345 14.0333C7.47687 15.1671 10.0547 16.3457 13.1679 17.1815ZM17.4692 14.3353C18.8853 14.5455 20.3969 14.6667 22.0002 14.6667C23.6033 14.6667 25.115 14.5455 26.5308 14.3354C25.873 11.808 24.96 9.67494 24.0489 7.96693C23.3185 6.59741 22.5908 5.50381 22 4.70389C21.4092 5.50381 20.6815 6.59741 19.9511 7.96688C19.04 9.67489 18.127 11.808 17.4692 14.3353ZM30.832 17.1818C31.0449 18.6949 31.1667 20.3023 31.1667 22C31.1667 23.6979 31.0449 25.3051 30.832 26.8182C33.945 27.6542 36.5229 28.8327 38.5166 29.9667C39.6807 27.5574 40.3333 24.8549 40.3333 22C40.3333 19.1451 39.6807 16.4425 38.5166 14.0334C36.5232 15.1672 33.9453 16.3458 30.832 17.1818ZM36.5972 10.9066C34.902 11.8612 32.7311 12.8506 30.1214 13.5747C29.3795 10.6652 28.3331 8.20769 27.2844 6.24145C26.8637 5.45299 26.4425 4.74283 26.0399 4.11327C30.3175 5.07523 34.0291 7.53221 36.5972 10.9066ZM13.8787 13.5746C11.2689 12.8505 9.09798 11.8611 7.40273 10.9065C9.97104 7.53216 13.6827 5.07523 17.9598 4.11327C17.5575 4.74283 17.1363 5.45297 16.7157 6.2414C15.667 8.20764 14.6205 10.6651 13.8787 13.5746ZM30.1214 30.4253C29.3795 33.3349 28.3331 35.7923 27.2844 37.7586C26.8637 38.5469 26.4425 39.2573 26.0399 39.8867C30.3175 38.9248 34.0291 36.4677 36.5975 33.0934C34.9023 32.1388 32.7314 31.1496 30.1214 30.4253ZM22 44C34.1504 44 44 34.1504 44 22C44 9.84974 34.1504 0 22 0C9.84974 0 0 9.84974 0 22C0 34.1504 9.84974 44 22 44Z" fill="#000000"/>
</svg>
