<svg xmlns="http://www.w3.org/2000/svg" version="1.1" viewBox="0 0 22 22">
  <path d="M21.98,6.47c-.05-1.17-.24-1.97-.51-2.67-.28-.74-.71-1.4-1.27-1.95-.55-.56-1.22-.99-1.95-1.27-.7-.27-1.5-.46-2.67-.51C14.4.01,14.03,0,11.04,0s-3.36.01-4.53.06c-1.17.05-1.97.24-2.67.51-.74.28-1.4.71-1.95,1.27-.56.55-.99,1.22-1.27,1.95-.27.7-.46,1.5-.51,2.67-.06,1.18-.07,1.55-.07,4.54s.01,3.36.06,4.53c.05,1.17.24,1.97.51,2.67.28.74.71,1.4,1.27,1.95.55.56,1.22.99,1.95,1.27.7.27,1.5.46,2.67.51,1.17.05,1.55.06,4.53.06s3.36-.01,4.53-.06c1.17-.05,1.97-.24,2.67-.51,1.48-.57,2.65-1.74,3.22-3.22.27-.7.46-1.5.51-2.67.05-1.17.06-1.55.06-4.53s0-3.36-.06-4.53ZM20,15.45c-.05,1.07-.23,1.65-.38,2.04-.37.96-1.13,1.72-2.09,2.09-.39.15-.97.33-2.04.38-1.16.05-1.51.06-4.44.06s-3.29-.01-4.44-.06c-1.07-.05-1.65-.23-2.04-.38-.48-.18-.91-.46-1.26-.82-.37-.36-.64-.79-.82-1.26-.15-.39-.33-.97-.38-2.04-.05-1.16-.06-1.51-.06-4.44s.01-3.29.06-4.44c.05-1.07.23-1.65.38-2.04.18-.48.46-.91.83-1.26.36-.37.79-.64,1.26-.82.39-.15.97-.33,2.04-.38,1.16-.05,1.51-.06,4.44-.06s3.29.01,4.44.06c1.07.05,1.65.23,2.04.38.48.18.91.46,1.26.82.37.36.64.79.82,1.26.15.39.33.97.38,2.04.05,1.16.06,1.51.06,4.44s-.01,3.28-.06,4.44Z" fill="000000"/>
  <path d="M11.04,5.35c-3.12,0-5.65,2.53-5.65,5.65s2.53,5.65,5.65,5.65,5.65-2.53,5.65-5.65-2.53-5.65-5.65-5.65ZM11.04,14.67c-2.02,0-3.67-1.64-3.67-3.67s1.64-3.67,3.67-3.67,3.67,1.64,3.67,3.67-1.64,3.67-3.67,3.67Z" fill="000000"/>
  <path d="M16.92,3.81c-.73,0-1.32.59-1.32,1.32s.59,1.32,1.32,1.32,1.32-.59,1.32-1.32-.59-1.32-1.32-1.32Z" fill="000000"/>
</svg>