<svg width="51" height="53" viewBox="0 0 51 53" fill="none" xmlns="http://www.w3.org/2000/svg">
<path d="M25.3613 7.24609C26.2189 7.24609 26.9141 6.55088 26.9141 5.69336V1.55273C26.9141 0.695211 26.2189 0 25.3613 0C24.5038 0 23.8086 0.695211 23.8086 1.55273V5.69336C23.8086 6.55088 24.5038 7.24609 25.3613 7.24609Z" fill="#000000"/>
<path d="M49.1699 23.8086H45.0293C44.1718 23.8086 43.4766 24.5038 43.4766 25.3613C43.4766 26.2189 44.1718 26.9141 45.0293 26.9141H49.1699C50.0274 26.9141 50.7227 26.2189 50.7227 25.3613C50.7227 24.5038 50.0274 23.8086 49.1699 23.8086Z" fill="#000000"/>
<path d="M7.24609 25.3613C7.24609 24.5038 6.55088 23.8086 5.69336 23.8086H1.55273C0.695211 23.8086 0 24.5038 0 25.3613C0 26.2189 0.695211 26.9141 1.55273 26.9141H5.69336C6.55088 26.9141 7.24609 26.2189 7.24609 25.3613Z" fill="#000000"/>
<path d="M41.0496 16.3037C41.4784 17.0463 42.428 17.3007 43.1706 16.872L46.7565 14.8017C47.4991 14.3729 47.7536 13.4233 47.3248 12.6806C46.896 11.938 45.9464 11.6836 45.2038 12.1123L41.6179 14.1826C40.8753 14.6114 40.6208 15.5611 41.0496 16.3037Z" fill="#000000"/>
<path d="M7.55192 33.8506L3.96603 35.9209C3.22341 36.3497 2.96897 37.2993 3.39773 38.042C3.8265 38.7846 4.77615 39.039 5.51877 38.6103L9.10465 36.5399C9.84728 36.1112 10.1017 35.1615 9.67295 34.4189C9.24419 33.6763 8.29454 33.4219 7.55192 33.8506Z" fill="#000000"/>
<path d="M34.4192 9.67295C35.1618 10.1017 36.1114 9.84728 36.5402 9.10465L38.6105 5.51877C39.0393 4.77615 38.7848 3.8265 38.0422 3.39773C37.2996 2.96897 36.3499 3.22341 35.9212 3.96603L33.8509 7.55192C33.4221 8.29454 33.6765 9.24419 34.4192 9.67295Z" fill="#000000"/>
<path d="M14.1829 9.10465C14.6117 9.84728 15.5613 10.1017 16.3039 9.67295C17.0465 9.24419 17.301 8.29454 16.8722 7.55192L14.8019 3.96603C14.3732 3.22341 13.4235 2.96897 12.6809 3.39773C11.9383 3.8265 11.6838 4.77615 12.1126 5.51877L14.1829 9.10465Z" fill="#000000"/>
<path d="M9.10465 14.1826L5.51877 12.1123C4.77615 11.6836 3.8265 11.938 3.39773 12.6806C2.96897 13.4233 3.22341 14.3729 3.96603 14.8017L7.55192 16.872C8.29454 17.3007 9.24419 17.0463 9.67295 16.3037C10.1017 15.5611 9.84728 14.6114 9.10465 14.1826Z" fill="#000000"/>
<path d="M46.7565 35.9209L43.1706 33.8506C42.428 33.4219 41.4784 33.6763 41.0496 34.4189C40.6208 35.1615 40.8753 36.1112 41.6179 36.5399L45.2038 38.6103C45.9464 39.039 46.896 38.7846 47.3248 38.042C47.7536 37.2993 47.4991 36.3497 46.7565 35.9209Z" fill="#000000"/>
<path d="M25.3613 10.3516C17.0849 10.3516 10.3516 17.0849 10.3516 25.3613C10.3516 29.3956 11.9348 33.1815 14.8096 36.0218C15.94 37.1387 16.5625 38.5404 16.5625 39.9687V41.9238C16.5625 43.3662 17.4099 44.614 18.6328 45.1966V48.3418C18.6328 50.9103 20.7225 53 23.291 53H27.4316C30.0002 53 32.0898 50.9103 32.0898 48.3418V45.1966C33.3128 44.614 34.1602 43.3662 34.1602 41.9238V39.9687C34.1602 38.5404 34.7827 37.1387 35.913 36.0219C38.7878 33.1815 40.3711 29.3956 40.3711 25.3613C40.3711 17.0849 33.6377 10.3516 25.3613 10.3516ZM28.9844 48.3418C28.9844 49.198 28.2878 49.8945 27.4316 49.8945H23.291C22.4348 49.8945 21.7383 49.198 21.7383 48.3418V45.5469H28.9844V48.3418ZM33.7304 33.8129C32.005 35.5177 31.0547 37.7038 31.0547 39.9687V41.9238C31.0547 42.2092 30.8225 42.4414 30.5371 42.4414H26.9141V30.1451L30.5999 26.4593C31.2063 25.8529 31.2063 24.8698 30.5999 24.2634C29.9935 23.657 29.0105 23.657 28.4041 24.2634L25.3613 27.3061L22.3186 24.2633C21.7122 23.6569 20.7291 23.6569 20.1227 24.2633C19.5163 24.8697 19.5163 25.8528 20.1227 26.4592L23.8086 30.1451V42.4414H20.1855C19.9002 42.4414 19.668 42.2092 19.668 41.9238V39.9687C19.668 37.7038 18.7177 35.5177 16.9923 33.8127C14.7125 31.5605 13.457 28.559 13.457 25.3613C13.457 18.7973 18.7973 13.457 25.3613 13.457C31.9254 13.457 37.2656 18.7973 37.2656 25.3613C37.2656 28.559 36.0102 31.5605 33.7304 33.8129Z" fill="#000000"/>
</svg>
