<svg width="37" height="50" viewBox="0 0 37 50" fill="none" xmlns="http://www.w3.org/2000/svg">
<path fill-rule="evenodd" clip-rule="evenodd" d="M19.1036 0.0789638C20.112 0.346939 20.8125 1.24616 20.8125 2.27292V18.1819H34.6875C35.5156 18.1819 36.2803 18.617 36.6927 19.3227C37.1052 20.0283 37.1022 20.8967 36.685 21.5997L20.4975 48.8722C19.971 49.7592 18.9049 50.189 17.8964 49.921C16.888 49.6531 16.1875 48.7538 16.1875 47.7272V31.8182H2.3125C1.48446 31.8182 0.719651 31.383 0.30724 30.6773C-0.105171 29.9716 -0.102211 29.1032 0.31501 28.4003L16.5025 1.12777C17.029 0.240871 18.0951 -0.188991 19.1036 0.0789638ZM6.33865 27.2728H18.5C19.7772 27.2728 20.8125 28.2903 20.8125 29.5455V39.3204L30.6614 22.7274H18.5C17.2228 22.7274 16.1875 21.7099 16.1875 20.4546V10.6795L6.33865 27.2728Z" fill="#000000"/>
</svg>
