<svg viewBox="0 0 40 40" fill="none" xmlns="http://www.w3.org/2000/svg">
<path d="M21.9761 18.0994C29.0789 17.3833 35.1002 11.3567 35.8215 4.25708C28.7187 4.97315 22.6974 10.9997 21.9761 18.0994ZM14.6911 4.78571C16.9393 6.61802 18.7653 8.95367 20.0005 11.5789C21.2452 8.95156 23.0744 6.61169 25.3247 4.77097C21.9044 3.61051 18.1082 3.61578 14.6911 4.78571ZM18.0998 18.0994C17.3848 11.0018 11.3677 4.97421 4.26906 4.25708C4.98408 11.3546 11.0012 17.3823 18.0998 18.0994ZM3.75623 20.0612C3.76676 21.8967 4.08373 23.6784 4.70608 25.4044C6.5468 23.1487 8.88983 21.3164 11.5235 20.076C8.88773 18.8386 6.54364 17.0063 4.70608 14.7475C4.08478 16.464 3.76781 18.2352 3.75623 20.0612ZM18.0998 22.0536C10.9728 22.737 4.91353 28.7741 4.19324 35.8959C11.315 35.2009 17.3679 29.1701 18.0998 22.0536ZM25.31 35.3683C23.0639 33.5328 21.24 31.1982 20.0005 28.5751C18.7632 31.2035 16.9393 33.5434 14.6911 35.3831C18.1072 36.5403 21.8971 36.5351 25.3089 35.3683H25.31ZM21.9761 22.0536C22.6963 29.149 28.7103 35.1735 35.8068 35.8959C35.0865 28.8005 29.0725 22.776 21.9761 22.0536ZM36.2448 20.0918C36.2343 18.2563 35.9173 16.4745 35.295 14.7486C33.4585 17.0032 31.1207 18.8344 28.4923 20.077C31.1207 21.3196 33.4585 23.1509 35.295 25.4054C35.9479 23.7121 36.1237 21.803 36.2448 20.0918ZM40 20.0918C39.9937 23.2814 39.1997 26.4648 37.7075 29.2849C39.8452 34.7818 42.4568 41.9857 33.2742 39.2635C30.9617 38.7697 29.1736 37.1869 26.9801 38.7517C23.6378 39.9912 19.9637 40.3176 16.4549 39.6847C7.90523 36.5583 10.3578 39.5405 2.38306 39.7606C-1.88179 39.4268 1.32685 31.6637 2.26195 29.2838C0.780317 26.4574 -0.00314963 23.2688 9.5162e-06 20.077C-0.00314963 16.8852 0.780317 13.6966 2.26301 10.8692C1.29842 8.44189 -1.86072 0.747272 2.38306 0.377655C10.4431 0.591423 7.85785 3.5031 16.4423 0.322899C19.97 -0.326832 23.6704 0.00909042 27.0223 1.28433C29.1968 2.87864 30.9933 1.31382 33.3005 0.82415C42.5284 -1.86533 39.8168 5.30276 37.7075 10.8692C39.1976 13.6998 39.9905 16.8926 40 20.0918Z" fill="black"/>
</svg>
