<svg width="46" height="46" viewBox="0 0 46 46" fill="none" xmlns="http://www.w3.org/2000/svg">
<path d="M44.6523 0H22.2742C21.5299 0 20.9265 0.604559 20.9265 1.35026V4.76927H1.34766C0.603391 4.76927 0 5.37382 0 6.11953V41.4007C0 42.1464 0.603391 42.751 1.34766 42.751H10.9288V44.6496C10.9288 45.3953 11.5322 45.9998 12.2764 45.9998H39.294C40.0382 45.9998 40.6416 45.3953 40.6416 44.6496V24.4035H44.6523C45.3966 24.4035 46 23.799 46 23.0533V1.35026C46 0.604559 45.3966 0 44.6523 0ZM37.9462 19.2277V40.9811L32.4598 34.5252C32.2038 34.2238 31.8288 34.0502 31.4338 34.0502C31.0389 34.0502 30.6638 34.2238 30.4077 34.5252L27.4253 38.0345L22.7505 32.2306C22.4955 31.914 22.1115 31.7295 21.7054 31.7283C21.7042 31.7283 21.703 31.7283 21.7018 31.7283C21.297 31.7283 20.9137 31.9105 20.6577 32.2249L13.6241 40.8597V19.2277H37.9462ZM31.666 43.2994L29.1479 40.1732L31.4338 37.4834L36.3764 43.2993H31.666V43.2994ZM28.2023 43.2994H15.1158L21.6958 35.2214L28.2023 43.2994ZM2.69531 40.0505V7.46988H20.9265V10.648H6.7567C6.01243 10.648 5.40904 11.2526 5.40904 11.9983C5.40904 12.744 6.01243 13.3485 6.7567 13.3485H20.9266V16.5271L6.7567 16.5267C6.01243 16.5267 5.40904 17.1312 5.40904 17.8769C5.40904 18.6226 6.01243 19.2272 6.7567 19.2272H10.9288V22.4052H6.7567C6.01243 22.4052 5.40904 23.0098 5.40904 23.7555C5.40904 24.5012 6.01243 25.1058 6.7567 25.1058H10.9288V28.2838H6.7567C6.01243 28.2838 5.40904 28.8884 5.40904 29.6341C5.40904 30.3798 6.01243 30.9843 6.7567 30.9843H10.9288V34.1625H6.7567C6.01243 34.1625 5.40904 34.767 5.40904 35.5127C5.40904 36.2584 6.01243 36.863 6.7567 36.863H10.9288V40.0503H2.69531V40.0505ZM43.3047 21.703H40.6415V17.8775C40.6415 17.1318 40.0381 16.5272 39.2939 16.5272H32.8888L38.6063 12.9907C39.0162 12.7371 39.2598 12.2836 39.2454 11.8012C39.2309 11.3188 38.9606 10.8807 38.5362 10.6522L29.6607 5.87362C29.2431 5.64875 28.7382 5.66043 28.3313 5.90408C27.9243 6.14783 27.6752 6.58797 27.6752 7.06307V16.5272H23.6219V2.70061H43.3047V21.703ZM30.3705 14.9112V9.32156L35.2018 11.9228L30.3705 14.9112Z" fill="#000000"/>
<path d="M31.4338 31.6685C33.5962 31.6685 35.3554 29.9059 35.3554 27.7393C35.3554 25.5727 33.5962 23.8101 31.4338 23.8101C29.2714 23.8101 27.5122 25.5727 27.5122 27.7393C27.5122 29.9058 29.2714 31.6685 31.4338 31.6685ZM31.4338 26.5106C32.11 26.5106 32.6601 27.0618 32.6601 27.7393C32.6601 28.4168 32.11 28.968 31.4338 28.968C30.7576 28.968 30.2075 28.4168 30.2075 27.7393C30.2075 27.0618 30.7576 26.5106 31.4338 26.5106Z" fill="#000000"/>
</svg>
