<svg width="56" height="43" viewBox="0 0 56 43" fill="none" xmlns="http://www.w3.org/2000/svg">
<path d="M54.3594 19.6875H49.4375C48.5314 19.6875 47.7969 20.4221 47.7969 21.3281C47.7969 22.2342 48.5314 22.9688 49.4375 22.9688H54.3594C55.2654 22.9688 56 22.2342 56 21.3281C56 20.4221 55.2654 19.6875 54.3594 19.6875Z" fill="#000000"/>
<path d="M52.2383 30.012L48.957 26.7307C48.3164 26.0901 47.2776 26.0901 46.6369 26.7307C45.996 27.3713 45.996 28.4102 46.6369 29.0509L49.9181 32.3321C50.5587 32.9728 51.5977 32.9728 52.2383 32.3321C52.879 31.6914 52.879 30.6527 52.2383 30.012Z" fill="#000000"/>
<path d="M52.2382 10.3245C51.5976 9.68384 50.5588 9.68384 49.918 10.3245L46.6368 13.6057C45.9961 14.2464 45.9961 15.2852 46.6368 15.9259C47.2775 16.5666 48.3163 16.5665 48.957 15.9259L52.2382 12.6446C52.8789 12.0039 52.8789 10.9652 52.2382 10.3245Z" fill="#000000"/>
<path d="M37.9531 0C35.4888 0 33.442 1.82055 33.0863 4.18731L31.5897 5.68389C28.9849 8.28866 25.1489 9.84375 21.3281 9.84375H11.4844C9.34555 9.84375 7.52194 11.2154 6.84469 13.125H6.5625C2.94394 13.125 0 16.0689 0 19.6875C0 23.3061 2.94394 26.25 6.5625 26.25H6.84469C7.33983 27.6461 8.44769 28.7539 9.84375 29.2491V37.7344C9.84375 40.4483 12.0518 42.6562 14.7657 42.6562C17.4795 42.6562 19.6875 40.4483 19.6875 37.7344V29.5312H21.3281C25.1488 29.5312 28.9848 31.0863 31.5897 33.6911L33.0863 35.1877C33.442 37.5543 35.4889 39.375 37.9532 39.375C40.667 39.375 42.875 37.167 42.875 34.4531V4.92188C42.875 2.20795 40.667 0 37.9531 0ZM6.5625 22.9688C4.75322 22.9688 3.28125 21.4968 3.28125 19.6875C3.28125 17.8782 4.75322 16.4062 6.5625 16.4062V22.9688ZM16.4062 37.7344C16.4062 38.639 15.6703 39.375 14.7656 39.375C13.861 39.375 13.125 38.639 13.125 37.7344V29.5312H16.4062V37.7344ZM19.6875 26.25H11.4844C10.5797 26.25 9.84375 25.514 9.84375 24.6094V14.7656C9.84375 13.861 10.5797 13.125 11.4844 13.125H19.6875V26.25ZM33.0312 30.5535C30.2596 28.1547 26.696 26.6642 22.9578 26.3244L22.9579 13.0505C26.696 12.7108 30.2596 11.2203 33.0312 8.82142V30.5535ZM39.5938 34.4531C39.5938 35.3578 38.8578 36.0938 37.9532 36.0938H37.9531C37.0485 36.0938 36.3125 35.3578 36.3125 34.4531V4.92188C36.3125 4.01723 37.0485 3.28125 37.9532 3.28125C38.8578 3.28125 39.5938 4.01723 39.5938 4.92188V34.4531Z" fill="#000000"/>
</svg>
