<svg width="50" height="50" viewBox="0 0 50 50" fill="none" xmlns="http://www.w3.org/2000/svg">
<path d="M49.9641 1.53234C49.9325 0.795129 49.3574 0.196497 48.622 0.135364L48.5762 0.131555C43.5936 -0.279285 38.6519 0.273254 33.8885 1.77364C29.0203 3.30724 24.5724 5.75206 20.6686 9.04034C19.9914 9.61085 19.3381 10.2034 18.706 10.8144C17.1547 9.88116 15.3437 9.4379 13.5169 9.56046C11.3667 9.7047 9.34243 10.6241 7.81714 12.1494L0.429053 19.5376C-0.143018 20.1097 -0.143018 21.0371 0.429053 21.6092L1.29751 22.4776C3.68101 24.8611 6.81108 26.1944 10.1111 26.2823L9.55835 29.8933C9.48774 30.3541 9.64087 30.821 9.97056 31.1507L17.9195 39.0995C18.1962 39.3763 18.5697 39.5286 18.9551 39.5286C19.0288 39.5286 19.103 39.5231 19.1768 39.5117L22.7888 38.9588C22.877 42.2588 24.2095 45.3897 26.5923 47.7726L27.4609 48.6411C27.7469 48.9272 28.1218 49.0701 28.4966 49.0701C28.8714 49.0701 29.2464 48.9272 29.5324 48.641L36.9204 41.2529C39.7635 38.4098 40.33 34.0964 38.4258 30.6577C39.1705 29.9296 39.8891 29.171 40.5775 28.379C43.7983 24.673 46.2502 20.4428 47.8652 15.8062C49.4671 11.2073 50.1732 6.40489 49.9641 1.53234ZM47.0695 2.96935C47.0905 6.22775 46.6658 9.44503 45.8042 12.5749L37.1399 3.91075C40.3907 3.12775 43.7168 2.81154 47.0695 2.96935ZM3.53823 20.5715L9.88862 14.2211C11.6735 12.4362 14.3807 12.0006 16.6034 13.0127C14.4547 15.4484 12.6257 18.1488 11.1409 21.0872L10.9096 21.5448C10.8399 21.6828 10.7924 21.8311 10.7691 21.9839L10.5591 23.3557C7.94741 23.379 5.45083 22.3985 3.53823 20.5715ZM12.5666 29.6035L13.1818 25.5843C13.2307 25.5172 13.275 25.4467 13.3121 25.3721L23.7071 35.7671C23.6377 35.8009 23.5719 35.8407 23.5089 35.8848L19.4667 36.5035L12.5666 29.6035ZM34.849 39.1815L28.4987 45.5318C26.6721 43.6198 25.6913 41.1224 25.7145 38.5109L27.0863 38.301C27.2391 38.2776 27.3873 38.2302 27.5252 38.1605L28.9139 37.4588C31.5224 36.1407 33.9451 34.5477 36.1633 32.7006C37.0588 34.8858 36.5875 37.4429 34.849 39.1815ZM27.5926 34.844L27.1504 35.0674L14.0079 21.9248C18.2008 13.9413 25.401 7.77052 33.9301 4.84396L44.7871 15.7008C41.6451 24.0379 35.5687 30.8135 27.5926 34.844Z" fill="#000000"/>
<path d="M25.9897 15.4052C23.7131 17.6819 23.7131 21.3864 25.9897 23.6632C27.128 24.8014 28.6234 25.3706 30.1186 25.3706C31.6138 25.3706 33.1093 24.8014 34.2475 23.6631C36.5242 21.3864 36.5242 17.6819 34.2475 15.4052C31.9709 13.1286 28.2663 13.1286 25.9897 15.4052ZM32.176 21.5915C31.0416 22.7259 29.1957 22.7259 28.0613 21.5915C26.9269 20.457 26.9269 18.6112 28.0613 17.4767C28.6286 16.9095 29.3735 16.626 30.1186 16.626C30.8637 16.626 31.6088 16.9095 32.176 17.4767C33.3103 18.6113 33.3103 20.4571 32.176 21.5915Z" fill="#000000"/>
<path d="M12.0231 37.4515C11.4511 36.8795 10.5236 36.8794 9.95151 37.4515L5.23813 42.165C4.66606 42.737 4.66606 43.6645 5.23813 44.2365C5.52417 44.5226 5.89907 44.6655 6.27388 44.6655C6.64868 44.6655 7.02368 44.5226 7.30962 44.2364L12.023 39.523C12.5953 38.9511 12.5953 38.0235 12.0231 37.4515Z" fill="#000000"/>
<path d="M7.82739 33.256C7.25542 32.6839 6.32788 32.6839 5.75581 33.256L1.04233 37.9694C0.470264 38.5415 0.470264 39.4689 1.04233 40.041C1.32837 40.3271 1.70327 40.47 2.07808 40.47C2.45288 40.47 2.82788 40.3271 3.11382 40.041L7.82729 35.3275C8.39946 34.7555 8.39946 33.828 7.82739 33.256Z" fill="#000000"/>
<path d="M14.1474 41.6474L9.43394 46.3609C8.86187 46.9329 8.86187 47.8604 9.43394 48.4324C9.71997 48.7185 10.0949 48.8615 10.4697 48.8615C10.8445 48.8615 11.2195 48.7186 11.5054 48.4324L16.2189 43.719C16.791 43.1469 16.791 42.2195 16.2189 41.6474C15.6469 41.0752 14.7195 41.0752 14.1474 41.6474Z" fill="#000000"/>
</svg>
