<svg width="49" height="49" viewBox="0 0 49 49" fill="none" xmlns="http://www.w3.org/2000/svg">
<path d="M46.9919 22.4911H42.4551C41.4783 14.1067 34.8933 7.52166 26.5925 6.55293L26.5073 6.5449V2.00813C26.5073 0.899643 25.6077 0 24.4992 0C23.3907 0 22.4911 0.899643 22.4911 2.00813V6.5449C14.1067 7.52165 7.52166 14.1067 6.55293 22.4075L6.5449 22.4927H2.00813C0.899643 22.4927 0 23.3923 0 24.5008C0 25.6093 0.899643 26.5089 2.00813 26.5089H6.5449C7.52165 34.8933 14.1067 41.4783 22.4075 42.4471L22.4927 42.4551V46.9919C22.4927 48.1004 23.3923 49 24.5008 49C25.6093 49 26.5089 48.1004 26.5089 46.9919V42.4551C34.8933 41.4783 41.4783 34.8933 42.4471 26.5925L42.4551 26.5073H46.9919C48.1004 26.5073 49 25.6077 49 24.4992C49 23.3907 48.1004 22.4911 46.9919 22.4911ZM24.5008 38.5561C16.7382 38.5561 10.4439 32.2618 10.4439 24.4992C10.4439 16.7366 16.7382 10.4423 24.5008 10.4423C32.2634 10.4423 38.5577 16.7366 38.5577 24.4992C38.5481 32.2586 32.2586 38.5465 24.5008 38.5561ZM24.5008 16.065C19.8435 16.065 16.0667 19.8419 16.0667 24.4992C16.0667 29.1565 19.8435 32.9333 24.5008 32.9333C29.1581 32.9333 32.935 29.1565 32.935 24.4992C32.9285 19.8435 29.1565 16.0715 24.5008 16.065ZM24.5008 28.9171C22.0605 28.9171 20.0829 26.9395 20.0829 24.4992C20.0829 22.0589 22.0605 20.0813 24.5008 20.0813C26.9411 20.0813 28.9187 22.0589 28.9187 24.4992C28.9155 26.9379 26.9395 28.9139 24.5008 28.9171Z" fill="#000000"/>
</svg>
